<?xml version="1.0" standalone="no"?>
<!DOCTYPE svg PUBLIC "-//W3C//DTD SVG 20010904//EN"
 "http://www.w3.org/TR/2001/REC-SVG-20010904/DTD/svg10.dtd">
<svg version="1.0" xmlns="http://www.w3.org/2000/svg"
 width="512.000000pt" height="512.000000pt" viewBox="0 0 512.000000 512.000000"
 preserveAspectRatio="xMidYMid meet">
<metadata>
Created by potrace 1.14, written by Peter Selinger 2001-2017
</metadata>
<g transform="translate(0.000000,512.000000) scale(0.100000,-0.100000)"
fill="#000000" stroke="none">
<path d="M0 2560 l0 -2560 2560 0 2560 0 0 2560 0 2560 -2560 0 -2560 0 0
-2560z m3098 2325 c88 -26 198 -126 253 -229 27 -50 33 -72 32 -123 0 -53 -7
-76 -56 -180 -86 -180 -91 -255 -28 -396 25 -55 77 -142 129 -217 35 -51 125
-130 159 -139 111 -31 183 49 309 344 62 148 111 215 155 215 54 0 106 -57
112 -121 4 -42 -16 -136 -45 -209 -90 -229 -339 -607 -413 -626 -67 -17 -95
-9 -274 80 -162 80 -212 86 -225 26 -3 -14 -8 -53 -11 -87 -6 -74 -29 -196
-55 -302 -44 -172 -13 -246 132 -321 32 -17 135 -60 230 -96 407 -156 548
-254 604 -423 19 -57 22 -83 19 -186 -2 -66 -7 -133 -10 -150 -42 -203 -70
-327 -104 -451 -47 -175 -91 -349 -98 -384 -2 -14 -8 -41 -12 -60 -12 -57 -13
-155 -1 -200 14 -52 59 -102 168 -187 172 -135 180 -222 20 -229 -68 -2 -220
24 -317 55 -89 28 -142 92 -157 191 -7 48 -7 267 1 360 8 104 16 225 20 290 2
36 6 110 10 165 3 55 8 129 10 165 3 36 7 110 10 165 3 55 8 136 10 181 l4 81
-117 17 c-64 9 -128 18 -142 20 -14 3 -43 7 -65 11 -22 3 -53 8 -70 10 -16 3
-43 7 -60 10 -59 9 -171 7 -227 -4 -111 -23 -195 -90 -393 -311 -328 -366
-549 -505 -1080 -682 -115 -39 -228 -79 -249 -89 -22 -10 -43 -19 -48 -19 -14
0 -223 -102 -313 -153 -134 -76 -218 -141 -274 -210 -49 -62 -143 -156 -158
-158 -50 -8 -55 -6 -73 33 -12 26 -16 59 -15 101 10 225 64 400 149 481 49 46
74 57 146 62 138 10 287 57 509 162 144 67 407 231 561 350 138 106 309 285
351 367 102 195 194 569 244 990 3 28 7 145 10 260 4 246 -9 344 -58 443 -90
179 -133 176 -323 -19 -134 -138 -193 -238 -234 -397 -26 -103 -29 -130 -35
-287 -6 -154 -11 -203 -26 -259 -38 -142 -147 -137 -193 9 -36 113 -46 266
-31 465 23 313 141 579 344 775 97 94 211 167 371 238 38 17 169 56 210 63 57
10 174 46 210 64 99 51 133 118 144 285 8 109 12 134 33 188 63 160 177 224
321 182z"/>
</g>
</svg>
